<svg viewBox="-153 -46 652 652" xmlns="http://www.w3.org/2000/svg" xmlns:xlink="http://www.w3.org/1999/xlink" id="layer" overflow="hidden"><g><g><path d="M-0.4 407.1C-31.4 406.4-62.3 394.2-85.9 370.8-135.1 322.1-135.3 242.7-86.6 193.7-37.9 144.7 41.6 144.5 90.7 193.2 96.5 198.9 101.7 205.2 106.1 211.9 112.3 221.2 113.5 232.3 110 242.1 118.9 247.4 125.3 256.5 126.6 267.6 131.1 305.7 118 343.2 90.9 370.3 65.9 395.7 32.7 408-0.4 407.1ZM3.4 225.1C-11.7 224.8-26.8 230.4-38.3 241.9-60.4 264.2-60.4 300.4-38.1 322.5-15.8 344.6 20.4 344.6 42.5 322.3 54.8 310 61 295.7 59 278.4 58.3 273.3 59.9 264 63.1 259.5 57.1 257.1 50.9 252.8 48 248.5 45.9 245.4 44.9 244.4 42.2 241.8 31.6 230.9 17.6 225.4 3.4 225.1Z" fill="#57BEC0"/><g><path d="M90.8 261.8C100.2 258.4 106.9 251 110 242.3 101.9 237.7 92 236.5 82.6 239.9 73.2 243.3 66.5 250.7 63.4 259.4 71.2 264.2 81.4 265.4 90.8 261.8Z" fill="#EB5C5A"/></g></g><g><path d="M187.8 243.1C188.3 243.1 188.8 243.3 189.2 243.4 189.5 243.6 190.1 243.9 190.4 244.3 190.7 244.7 191.3 245.2 191.8 245.7L228.1 291.6C227.9 290.1 227.9 288.7 227.8 287.3 227.8 285.9 227.6 284.6 227.6 283.4L227.6 242.9 243.2 242.9 243.2 319.5 233.9 319.5C232.5 319.5 231.3 319.3 230.5 318.8 229.5 318.5 228.6 317.6 227.8 316.6L191.6 271C191.8 272.4 191.8 273.6 191.9 274.9 191.9 276.1 192.1 277.3 192.1 278.5L192.1 319.5 176.5 319.5 176.5 242.9 185.9 242.9C186.8 242.9 187.3 242.9 187.8 243.1Z" fill="#EB5C5A"/><path d="M250.7 242.9 264.9 242.9C266.4 242.9 267.6 243.2 268.7 243.9 269.7 244.6 270.4 245.6 270.8 246.6L285.5 287.6C286.2 289.3 286.9 291.4 287.6 293.4 288.3 295.5 289 297.7 289.5 300.1 290 297.9 290.5 295.6 291.2 293.4 291.9 291.3 292.6 289.3 293.1 287.6L307.8 246.6C308.1 245.6 308.8 244.7 309.9 244 310.9 243.1 312.1 242.8 313.7 242.8L328 242.8 297.3 319.4 281.2 319.4 250.7 242.9Z" fill="#EB5C5A"/><path d="M395.2 319.5 381.5 319.5C380 319.5 378.8 319.2 377.7 318.5 376.6 317.8 376 316.8 375.6 315.8L371.1 302.4 342 302.4 337.5 315.8C337.2 316.8 336.5 317.7 335.4 318.4 334.4 319.3 333.2 319.6 331.6 319.6L317.7 319.6 347.4 243 365.4 243 395.2 319.5ZM346 290.2 366.9 290.2 359.9 269.3C359.4 267.9 358.9 266.4 358.4 264.7 357.7 262.8 357.2 260.9 356.5 258.9 356 261 355.3 263 354.8 264.9 354.3 266.8 353.6 268.3 353.1 269.7L346 290.2Z" fill="#EB5C5A"/><path d="M477 281.1C477 286.6 476 291.7 474.1 296.5 472.2 301.3 469.5 305.4 466 308.8 462.6 312.4 458.3 315.1 453.5 317 448.5 319.1 443.2 319.9 437.2 319.9 431.2 319.9 425.9 318.9 420.9 317 415.9 314.9 411.8 312.2 408.4 308.8 405 305.2 402.2 301.1 400.3 296.5 398.4 291.7 397.4 286.6 397.4 281.1 397.4 275.6 398.4 270.5 400.3 265.7 402.2 260.9 404.9 256.8 408.4 253.4 411.8 250 416.1 247.2 420.9 245.2 425.7 243.2 431.2 242.3 437.2 242.3 443.2 242.3 448.5 243.3 453.5 245.4 458.5 247.5 462.6 250.2 466 253.6 469.4 257 472.2 261.3 474.1 265.9 476 270.5 477 275.7 477 281.1ZM458.8 281.1C458.8 277.3 458.3 273.9 457.3 270.8 456.3 267.7 454.9 265.1 453 263.1 451.1 261 448.9 259.3 446.3 258.3 443.6 257.1 440.6 256.6 437.2 256.6 433.8 256.6 430.7 257.1 428.1 258.3 425.4 259.5 423.1 261 421.2 263.1 419.3 265.2 417.9 267.7 416.9 270.8 415.9 273.9 415.4 277.3 415.4 281.1 415.4 284.9 415.9 288.3 416.9 291.4 417.9 294.5 419.3 297.1 421.2 299.1 423.1 301.1 425.3 302.9 428.1 303.9 430.8 304.9 433.8 305.6 437.2 305.6 440.6 305.6 443.5 305.1 446.3 303.9 449 302.7 451.3 301.2 453 299.1 454.7 297 456.3 294.5 457.3 291.4 458.3 288.3 458.8 284.9 458.8 281.1Z" fill="#EB5C5A"/></g></g></svg>