<svg viewBox="0 0 184.5 11.2" xmlns="http://www.w3.org/2000/svg" xmlns:xlink="http://www.w3.org/1999/xlink" id="Laag_1" overflow="visible"><style>
.MsftOfcThm_Background1_Fill_v2 {
 fill:#FFFFFF; 
}
</style>
<g><path d="M0 0.2 2.7 0.2C3.6 0.2 4 0.3 4.4 0.4 5.3 0.8 5.8 1.6 5.8 2.7 5.8 3.7 5.3 4.7 4.4 5L4.4 5C4.4 5 4.5 5.1 4.7 5.4L6.5 8.6 4.8 8.6 3.1 5.4 1.6 5.4 1.6 8.6 0.1 8.6 0 0.2 0 0.2ZM2.9 4.2C3.7 4.2 4.2 3.7 4.2 2.9 4.2 2.1 3.9 1.6 2.6 1.6L1.4 1.6 1.4 4.3 2.9 4.3 2.9 4.2Z" class="MsftOfcThm_Background1_Fill_v2" stroke="none" stroke-width="1" fill="#FFFFFF" fill-opacity="1"/><path d="M8.1 6.5C8.1 6.5 9 7.4 10.2 7.4 10.8 7.4 11.4 7.1 11.4 6.4 11.4 4.9 7.4 5.1 7.4 2.5 7.4 1.1 8.6 0 10.3 0 12 0 12.8 0.9 12.8 0.9L12.1 2.2C12.1 2.2 11.3 1.5 10.2 1.5 9.5 1.5 8.9 1.9 8.9 2.5 8.9 4 12.9 3.6 12.9 6.4 12.9 7.8 11.9 8.9 10.1 8.9 8.2 8.9 7.2 7.7 7.2 7.7L8.1 6.5Z" class="MsftOfcThm_Background1_Fill_v2" stroke="none" stroke-width="1" fill="#FFFFFF" fill-opacity="1"/><path d="M14.9 0.2 16.6 0.2 18.3 4.4C18.5 4.9 18.7 5.6 18.7 5.6L18.7 5.6C18.7 5.6 18.9 4.9 19.1 4.4L20.8 0.2 22.5 0.2 23.2 8.7 21.7 8.7 21.3 3.9C21.3 3.3 21.3 2.6 21.3 2.6L21.3 2.6C21.3 2.6 21 3.4 20.8 3.9L19.4 7.2 18 7.2 16.6 3.9C16.4 3.4 16.1 2.6 16.1 2.6L16.1 2.6C16.1 2.6 16.1 3.4 16.1 3.9L15.7 8.7 14.2 8.7 14.9 0.2Z" class="MsftOfcThm_Background1_Fill_v2" stroke="none" stroke-width="1" fill="#FFFFFF" fill-opacity="1"/><path d="M27.8 4.6 31.4 4.6 31.4 5.9 27.8 5.9 27.8 4.6Z" class="MsftOfcThm_Background1_Fill_v2" stroke="none" stroke-width="1" fill="#FFFFFF" fill-opacity="1"/><path d="M39.2 4.9 39.4 4.9 39.4 4.8C39.4 4 38.9 3.7 38.2 3.7 37.3 3.7 36.5 4.3 36.5 4.3L35.9 3.2C35.9 3.2 36.8 2.4 38.3 2.4 39.9 2.4 40.8 3.3 40.8 4.8L40.8 8.6 39.4 8.6 39.4 8.1C39.4 7.9 39.4 7.7 39.4 7.7L39.4 7.7C39.4 7.7 38.9 8.8 37.5 8.8 36.4 8.8 35.4 8.1 35.4 6.9 35.6 5 38.2 4.9 39.2 4.9ZM38.1 7.7C38.9 7.7 39.5 6.8 39.5 6.1L39.5 6 39.2 6C38.4 6 37.2 6.1 37.2 7 37.1 7.3 37.4 7.7 38.1 7.7Z" class="MsftOfcThm_Background1_Fill_v2" stroke="none" stroke-width="1" fill="#FFFFFF" fill-opacity="1"/><path d="M45.8 3.9 45 3.9 45 2.7 45.8 2.7 45.8 2.4C45.8 0.4 47.4 0.1 48.3 0.1 48.6 0.1 48.8 0.1 48.8 0.1L48.8 1.4C48.8 1.4 48.7 1.4 48.5 1.4 48.1 1.4 47.3 1.5 47.3 2.4L47.3 2.6 48.6 2.6 48.6 3.8 47.3 3.8 47.3 8.6 45.8 8.6 45.8 3.9Z" class="MsftOfcThm_Background1_Fill_v2" stroke="none" stroke-width="1" fill="#FFFFFF" fill-opacity="1"/><path d="M52.5 2.5C54.4 2.5 55.9 3.8 55.9 5.7 55.9 7.6 54.4 8.9 52.5 8.9 50.6 8.9 49.1 7.6 49.1 5.7 49.2 3.8 50.7 2.5 52.5 2.5ZM52.5 7.6C53.5 7.6 54.3 6.8 54.3 5.7 54.3 4.6 53.5 3.8 52.5 3.8 51.5 3.8 50.7 4.6 50.7 5.7 50.7 6.8 51.5 7.6 52.5 7.6Z" class="MsftOfcThm_Background1_Fill_v2" stroke="none" stroke-width="1" fill="#FFFFFF" fill-opacity="1"/><path d="M57.1 2.6 58.6 2.6 58.6 3.7C58.6 3.9 58.6 4.1 58.6 4.1L58.6 4.1C58.9 3.2 59.6 2.5 60.5 2.5 60.6 2.5 60.8 2.5 60.8 2.5L60.8 4C60.8 4 60.6 4 60.4 4 59.8 4 59 4.4 58.7 5.3 58.6 5.6 58.6 5.9 58.6 6.3L58.6 8.7 57.1 8.7 57.1 2.6 57.1 2.6Z" class="MsftOfcThm_Background1_Fill_v2" stroke="none" stroke-width="1" fill="#FFFFFF" fill-opacity="1"/><path d="M64.7 2.5C66.3 2.5 67.1 3.4 67.1 3.4L66.4 4.4C66.4 4.4 65.8 3.7 64.8 3.7 63.7 3.7 62.9 4.6 62.9 5.6 62.9 6.6 63.6 7.5 64.8 7.5 65.8 7.5 66.6 6.7 66.6 6.7L67.2 7.8C67.2 7.8 66.3 8.8 64.7 8.8 62.7 8.8 61.4 7.4 61.4 5.6 61.4 3.9 62.7 2.5 64.7 2.5Z" class="MsftOfcThm_Background1_Fill_v2" stroke="none" stroke-width="1" fill="#FFFFFF" fill-opacity="1"/><path d="M71 2.5C72.8 2.5 73.7 3.8 73.7 5.4 73.7 5.6 73.7 6 73.7 6L69.5 6C69.6 7.1 70.4 7.6 71.3 7.6 72.3 7.6 73.1 6.9 73.1 6.9L73.7 8C73.7 8 72.8 8.9 71.2 8.9 69.2 8.9 67.9 7.4 67.9 5.7 67.9 3.8 69.2 2.5 71 2.5ZM72.2 4.9C72.2 4.1 71.7 3.6 71 3.6 70.2 3.6 69.7 4.1 69.5 4.9L72.2 4.9Z" class="MsftOfcThm_Background1_Fill_v2" stroke="none" stroke-width="1" fill="#FFFFFF" fill-opacity="1"/><path d="M78.2 3.9 77.4 3.9 77.4 2.7 78.2 2.7 78.2 2.4C78.2 0.4 79.8 0.1 80.7 0.1 81 0.1 81.2 0.1 81.2 0.1L81.2 1.4C81.2 1.4 81.1 1.4 80.9 1.4 80.5 1.4 79.7 1.5 79.7 2.4L79.7 2.6 81 2.6 81 3.8 79.7 3.8 79.7 8.6 78.2 8.6 78.2 3.9Z" class="MsftOfcThm_Background1_Fill_v2" stroke="none" stroke-width="1" fill="#FFFFFF" fill-opacity="1"/><path d="M85 2.5C86.9 2.5 88.4 3.8 88.4 5.7 88.4 7.6 86.9 8.9 85 8.9 83.1 8.9 81.6 7.6 81.6 5.7 81.6 3.8 83.1 2.5 85 2.5ZM85 7.6C86 7.6 86.8 6.8 86.8 5.7 86.8 4.6 86 3.8 85 3.8 84 3.8 83.2 4.6 83.2 5.7 83.2 6.8 84 7.6 85 7.6Z" class="MsftOfcThm_Background1_Fill_v2" stroke="none" stroke-width="1" fill="#FFFFFF" fill-opacity="1"/><path d="M89.6 2.6 91.1 2.6 91.1 3.7C91.1 3.9 91.1 4.1 91.1 4.1L91.1 4.1C91.4 3.2 92.1 2.5 93 2.5 93.1 2.5 93.3 2.5 93.3 2.5L93.3 4C93.3 4 93.1 4 92.9 4 92.3 4 91.5 4.4 91.2 5.3 91.1 5.6 91.1 5.9 91.1 6.3L91.1 8.7 89.6 8.7 89.6 2.6 89.6 2.6Z" class="MsftOfcThm_Background1_Fill_v2" stroke="none" stroke-width="1" fill="#FFFFFF" fill-opacity="1"/><path d="M97.2 2.6 98.6 2.6 98.6 3C98.6 3.2 98.6 3.4 98.6 3.4L98.6 3.4C98.6 3.4 99.1 2.4 100.6 2.4 102.3 2.4 103.3 3.7 103.3 5.6 103.3 7.5 102.1 8.8 100.5 8.8 99.3 8.8 98.7 8 98.7 8L98.7 8C98.7 8 98.7 8.2 98.7 8.5L98.7 11.1 97.2 11.1 97.2 2.6ZM100.2 7.6C101 7.6 101.7 6.9 101.7 5.7 101.7 4.5 101.1 3.8 100.2 3.8 99.4 3.8 98.7 4.4 98.7 5.7 98.7 6.7 99.2 7.6 100.2 7.6Z" class="MsftOfcThm_Background1_Fill_v2" stroke="none" stroke-width="1" fill="#FFFFFF" fill-opacity="1"/><path d="M107.5 2.5C109.4 2.5 110.9 3.8 110.9 5.7 110.9 7.6 109.4 8.9 107.5 8.9 105.6 8.9 104.1 7.6 104.1 5.7 104.1 3.8 105.6 2.5 107.5 2.5ZM107.5 7.6C108.5 7.6 109.3 6.8 109.3 5.7 109.3 4.6 108.5 3.8 107.5 3.8 106.5 3.8 105.7 4.6 105.7 5.7 105.7 6.8 106.5 7.6 107.5 7.6Z" class="MsftOfcThm_Background1_Fill_v2" stroke="none" stroke-width="1" fill="#FFFFFF" fill-opacity="1"/><path d="M112.2 6.9C112.2 6.9 112.9 7.6 113.9 7.6 114.3 7.6 114.7 7.4 114.7 7 114.7 6.1 111.7 6.2 111.7 4.2 111.7 3.1 112.7 2.4 114 2.4 115.4 2.4 116.1 3.1 116.1 3.1L115.5 4.2C115.5 4.2 114.9 3.7 114 3.7 113.6 3.7 113.2 3.9 113.2 4.3 113.2 5.2 116.2 5.1 116.2 7 116.2 8 115.3 8.8 113.9 8.8 112.4 8.8 111.5 7.9 111.5 7.9L112.2 6.9Z" class="MsftOfcThm_Background1_Fill_v2" stroke="none" stroke-width="1" fill="#FFFFFF" fill-opacity="1"/><path d="M117.5 0.2 119 0.2 119 1.6 117.5 1.6 117.5 0.2ZM117.5 2.6 119 2.6 119 8.7 117.5 8.7 117.5 2.6Z" class="MsftOfcThm_Background1_Fill_v2" stroke="none" stroke-width="1" fill="#FFFFFF" fill-opacity="1"/><path d="M121 3.9 120.2 3.9 120.2 2.7 121 2.7 121 0.9 122.5 0.9 122.5 2.7 123.9 2.7 123.9 3.9 122.5 3.9 122.5 6.3C122.5 7.3 123.3 7.5 123.7 7.5 123.9 7.5 124 7.5 124 7.5L124 8.8C124 8.8 123.8 8.8 123.5 8.8 122.6 8.8 121 8.5 121 6.5L121 3.9Z" class="MsftOfcThm_Background1_Fill_v2" stroke="none" stroke-width="1" fill="#FFFFFF" fill-opacity="1"/><path d="M125.2 0.2 126.7 0.2 126.7 1.6 125.2 1.6 125.2 0.2ZM125.2 2.6 126.7 2.6 126.7 8.7 125.2 8.7 125.2 2.6Z" class="MsftOfcThm_Background1_Fill_v2" stroke="none" stroke-width="1" fill="#FFFFFF" fill-opacity="1"/><path d="M127.6 2.6 129.2 2.6 130.5 6.4C130.6 6.8 130.7 7.3 130.7 7.3L130.7 7.3C130.7 7.3 130.8 6.7 130.9 6.4L132.2 2.6 133.8 2.6 131.6 8.7 129.8 8.7 127.6 2.6Z" class="MsftOfcThm_Background1_Fill_v2" stroke="none" stroke-width="1" fill="#FFFFFF" fill-opacity="1"/><path d="M137.3 2.5C139.1 2.5 140 3.8 140 5.4 140 5.6 140 6 140 6L135.8 6C135.9 7.1 136.7 7.6 137.6 7.6 138.6 7.6 139.4 6.9 139.4 6.9L140 8C140 8 139.1 8.9 137.5 8.9 135.5 8.9 134.2 7.4 134.2 5.7 134.2 3.8 135.5 2.5 137.3 2.5ZM138.5 4.9C138.5 4.1 138 3.6 137.3 3.6 136.5 3.6 136 4.1 135.8 4.9L138.5 4.9Z" class="MsftOfcThm_Background1_Fill_v2" stroke="none" stroke-width="1" fill="#FFFFFF" fill-opacity="1"/><path d="M147.1 2.5C148.7 2.5 149.5 3.4 149.5 3.4L148.8 4.4C148.8 4.4 148.2 3.7 147.2 3.7 146.1 3.7 145.3 4.6 145.3 5.6 145.3 6.6 146 7.5 147.2 7.5 148.2 7.5 149 6.7 149 6.7L149.6 7.8C149.6 7.8 148.7 8.8 147.1 8.8 145.1 8.8 143.8 7.4 143.8 5.6 143.8 3.9 145.1 2.5 147.1 2.5Z" class="MsftOfcThm_Background1_Fill_v2" stroke="none" stroke-width="1" fill="#FFFFFF" fill-opacity="1"/><path d="M150.8 0.2 152.3 0.2 152.3 3.2C152.3 3.5 152.3 3.7 152.3 3.7L152.3 3.7C152.6 3.1 153.3 2.5 154.4 2.5 155.8 2.5 156.5 3.2 156.5 4.8L156.5 8.7 155 8.7 155 5.1C155 4.4 154.8 3.9 154 3.9 153.2 3.9 152.6 4.4 152.3 5.2 152.2 5.4 152.2 5.7 152.2 6L152.2 8.8 150.7 8.8 150.7 0.2 150.8 0.2Z" class="MsftOfcThm_Background1_Fill_v2" stroke="none" stroke-width="1" fill="#FFFFFF" fill-opacity="1"/><path d="M161.2 4.9 161.4 4.9 161.4 4.8C161.4 4 160.9 3.7 160.2 3.7 159.3 3.7 158.5 4.3 158.5 4.3L157.9 3.2C157.9 3.2 158.8 2.4 160.3 2.4 161.9 2.4 162.8 3.3 162.8 4.8L162.8 8.6 161.4 8.6 161.4 8.1C161.4 7.9 161.4 7.7 161.4 7.7L161.4 7.7C161.4 7.7 160.9 8.8 159.5 8.8 158.4 8.8 157.4 8.1 157.4 6.9 157.6 5 160.2 4.9 161.2 4.9ZM160.1 7.7C160.9 7.7 161.5 6.8 161.5 6.1L161.5 6 161.2 6C160.4 6 159.2 6.1 159.2 7 159.1 7.3 159.4 7.7 160.1 7.7Z" class="MsftOfcThm_Background1_Fill_v2" stroke="none" stroke-width="1" fill="#FFFFFF" fill-opacity="1"/><path d="M164.5 2.6 166 2.6 166 3.3C166 3.5 166 3.7 166 3.7L166 3.7C166.3 3.2 166.9 2.4 168.2 2.4 169.6 2.4 170.3 3.1 170.3 4.7L170.3 8.6 168.8 8.6 168.8 5C168.8 4.3 168.6 3.8 167.8 3.8 167 3.8 166.4 4.3 166.2 5 166.1 5.3 166.1 5.5 166.1 5.8L166.1 8.6 164.6 8.6 164.6 2.6 164.5 2.6Z" class="MsftOfcThm_Background1_Fill_v2" stroke="none" stroke-width="1" fill="#FFFFFF" fill-opacity="1"/><path d="M174.2 10C175.1 10 175.9 9.6 175.9 8.5L175.9 8.1C175.9 8 175.9 7.8 175.9 7.8L175.9 7.8C175.5 8.3 175 8.6 174.2 8.6 172.4 8.6 171.5 7.2 171.5 5.5 171.5 3.8 172.4 2.5 174.2 2.5 175.5 2.5 176 3.3 176 3.3L176 3.3C176 3.3 176 3.2 176 3.1L176 2.6 177.4 2.6 177.4 8.3C177.4 10.4 175.8 11.2 174.2 11.2 173.4 11.2 172.6 11 172 10.7L172.5 9.5C172.5 9.6 173.3 10 174.2 10ZM176 5.5C176 4.1 175.3 3.7 174.5 3.7 173.6 3.7 173.1 4.4 173.1 5.4 173.1 6.5 173.7 7.3 174.6 7.3 175.3 7.3 176 6.9 176 5.5Z" class="MsftOfcThm_Background1_Fill_v2" stroke="none" stroke-width="1" fill="#FFFFFF" fill-opacity="1"/><path d="M181.8 2.5C183.6 2.5 184.5 3.8 184.5 5.4 184.5 5.6 184.5 6 184.5 6L180.2 6C180.3 7.1 181.1 7.6 182 7.6 183 7.6 183.8 6.9 183.8 6.9L184.4 8C184.4 8 183.5 8.9 181.9 8.9 179.9 8.9 178.6 7.4 178.6 5.7 178.7 3.8 180 2.5 181.8 2.5ZM183 4.9C183 4.1 182.5 3.6 181.8 3.6 181 3.6 180.5 4.1 180.3 4.9L183 4.9Z" class="MsftOfcThm_Background1_Fill_v2" stroke="none" stroke-width="1" fill="#FFFFFF" fill-opacity="1"/></g></svg>