<svg viewBox="0 0 652 652" xmlns="http://www.w3.org/2000/svg" xmlns:xlink="http://www.w3.org/1999/xlink" id="layer" overflow="hidden"><g><g><g><g><path d="M395.6 350.3 362.6 297.7 353.2 297.7 353.2 392.3 365.1 392.3 365.1 323.6 391.3 364.8 399.5 364.8 425.7 322.6 425.7 392.3 437.6 392.3 437.6 297.7 428.4 297.7Z" fill="#1C2E36"/><path d="M505.4 342C512.9 338 517 330.8 517 322.6 517 305.1 503.3 297.5 489.6 297.5L453.7 297.5 453.7 392.2 489 392.2C509.4 392.2 522.1 381.8 522.1 365 522 353.8 516.1 345.5 505.4 342ZM509.8 364.8C509.8 376.3 502.9 381.4 487.9 381.4L466 381.4 466 348.5 487.5 348.5C501.6 348.5 509.8 354.5 509.8 364.8ZM488.2 337.9 466 337.9 466 308.5 488.5 308.5C498.9 308.5 505 314 505 323.5 504.8 332.3 498.6 337.9 488.2 337.9Z" fill="#1C2E36"/><path d="M576.1 297.5 566.1 297.5 527.6 392.3 540.8 392.3 551.8 364.4 589.9 364.4 600.9 392.3 614.3 392.3 576.1 297.5ZM585.5 353.8 555.8 353.8 570.5 316.2 585.5 353.8Z" fill="#1C2E36"/><path d="M243.4 351.6 302.2 351.6 318.4 392.2 337.4 392.2 280.3 251.1 266.2 251.1 208.8 392.3 227.5 392.3 243.4 351.6ZM272.8 277 296.5 336.5 249.4 336.5 272.8 277Z" fill="#1C2E36"/></g><g><path d="M319.1 316.7C313.1 316.7 310.1 312 310.1 306.7 310.1 301.4 313.1 297 319.1 297 325.1 297 328.1 301.7 328.1 306.7 328.1 312 325 316.7 319.1 316.7ZM319.1 298.8C314.7 298.8 312.2 302.5 312.2 307 312.2 311.3 314.4 315.2 319.1 315.2 323.5 315.2 326 311.5 326 307 326 302.7 323.5 298.8 319.1 298.8Z" fill="#1C2E36"/><path d="M334.3 308.2 334.3 316.4 332.4 316.4 332.4 297.4 344.3 297.4 344.3 299.2 334.3 299.2 334.3 306.4 343.3 306.4 343.3 308.2 334.3 308.2Z" fill="#1C2E36"/></g><g><path d="M610 298.2C605.6 298.2 603.2 300.1 603.2 303.2 603.2 311.4 620.4 307.9 620.4 318.9 620.4 324.6 615.7 327.6 609.4 327.6 605 327.6 601.2 326.1 598.2 322.6L600.7 320.4C602.6 323.2 605.4 324.7 609.4 324.7 614.1 324.7 616.9 322.8 616.9 319.4 616.9 310.4 599.7 314.4 599.7 303.7 599.7 299.4 602.7 295.5 609.7 295.5 614 295.5 617.2 296.7 620 300.2L617.8 302.4C616 299.8 613.5 298.2 610 298.2Z" fill="#1C2E36"/></g></g><g><path d="M323.5 254.7C318.2 254.7 316 256.9 316 260.2 316 269.3 335.1 265.5 335.1 277.9 335.1 284.1 329.8 287.6 322.9 287.6 317.9 287.6 313.8 286.1 310.4 282.1L313.2 279.6C315.7 282.6 318.7 284.6 323.2 284.6 328.7 284.6 331.4 282.1 331.4 278.6 331.4 268.3 312.3 273.1 312.3 260.9 312.3 256.2 315.5 251.8 323.5 251.8 328.2 251.8 332 253.3 335.1 257.1L332.6 259.6C330.3 256.1 327.3 254.7 323.5 254.7Z" fill="#1C2E36"/><path d="M357.5 254.7C352.2 254.7 350 256.9 350 260.2 350 269.3 369.1 265.5 369.1 277.9 369.1 284.1 363.8 287.6 356.9 287.6 351.9 287.6 347.8 286.1 344.4 282.1L347.2 279.6C349.7 282.6 352.7 284.6 357.2 284.6 362.7 284.6 365.4 282.1 365.4 278.6 365.4 268.3 346.3 273.1 346.3 260.9 346.3 256.2 349.5 251.8 357.5 251.8 362.2 251.8 366 253.3 369.1 257.1L366.6 259.6C364.1 256.1 361.2 254.7 357.5 254.7Z" fill="#1C2E36"/><path d="M393.2 287.6C382.2 287.6 376.7 278.9 376.7 269.4 376.7 260 382.2 251.5 393.2 251.5 404.2 251.5 409.7 260 409.7 269.4 409.7 278.8 404.1 287.6 393.2 287.6ZM393.2 254.7C384.7 254.7 380.4 261.6 380.4 269.7 380.4 277.5 384.7 284.7 393.2 284.7 401.7 284.7 406 277.8 406 269.7 406 261.6 401.6 254.7 393.2 254.7Z" fill="#1C2E36"/><path d="M431.4 251.4C437.1 251.4 440.8 253.6 443.9 257.1L441.1 259.6C438.3 256.1 435.1 254.6 431.4 254.6 423.2 254.6 419.5 262.1 419.5 269.6 419.5 277.1 423.2 284.6 431.4 284.6 435.1 284.6 438.3 283.1 441.1 279.6L443.9 282.1C440.9 285.6 437 287.8 431.4 287.8 420.7 287.8 415.7 279.1 415.7 269.9 416 260.1 420.7 251.4 431.4 251.4Z" fill="#1C2E36"/><path d="M454.4 286.7 454.4 251.8 458.1 251.8 458.1 286.5 454.4 286.5 454.4 286.7Z" fill="#1C2E36"/><path d="M493.5 286.7 489.2 276 474 276 469.7 286.7 465.7 286.7 480.1 251.4 483.3 251.4 497.4 286.7 493.5 286.7ZM481.4 256.9 475.2 273.1 488 273.1 481.4 256.9Z" fill="#1C2E36"/><path d="M513.6 255.4 513.6 286.7 509.9 286.7 509.9 255.4 497.1 255.4 497.1 251.9 526.5 251.9 526.5 255.1 513.6 255.1 513.6 255.4 513.6 255.4Z" fill="#1C2E36"/><path d="M535.3 286.7 535.3 251.8 539 251.8 539 286.5 535.3 286.5 535.3 286.7Z" fill="#1C2E36"/><path d="M565.4 287.6C554.4 287.6 548.9 278.9 548.9 269.4 548.9 260 554.4 251.5 565.4 251.5 576.4 251.5 581.9 260 581.9 269.4 581.9 278.8 576.3 287.6 565.4 287.6ZM565.4 254.7C556.9 254.7 552.6 261.6 552.6 269.7 552.6 277.5 556.9 284.7 565.4 284.7 573.9 284.7 578.2 277.8 578.2 269.7 578.2 261.6 573.9 254.7 565.4 254.7Z" fill="#1C2E36"/><path d="M616 287.3 594.5 258.6 594.5 286.7 591 286.7 591 251.6 593.8 251.6 615.4 280.3 615.4 251.9 618.9 251.9 618.9 287 615.9 287 615.9 287.3C615.9 287.3 616 287.3 616 287.3Z" fill="#1C2E36"/></g></g><path d="M207.4 297.7 161.4 251.7C160.9 251.2 160.1 251.2 159.6 251.3 159.1 251.4 158.5 252.2 158.5 252.7L158.5 256.9C156.2 253.4 152.1 251.1 147.6 251.1L114 251.1 114 251.1C113.6 251.1 113.1 251.3 112.7 251.6L91.1 273.4 69.1 251.4C68.6 250.9 67.8 250.9 67.3 251 67.1 251 66.9 251.2 66.8 251.4L66.8 251.4 20.7 297.5C20.2 298 20.2 298.8 20.3 299.3 20.3 299.5 20.5 299.7 20.7 299.8L20.7 299.8 66.7 345.8 112.7 391.8C113.1 392.2 113.4 392.3 113.8 392.3 114 392.3 114.2 392.3 114.5 392.1 114.7 392.1 114.9 391.9 115 391.7L115 391.7 161 345.7 207 299.7 207 299.7C207.2 299.5 207.4 299.3 207.4 299.2 208.1 298.8 207.9 298.1 207.4 297.7ZM66.6 340.8 26 300.3 66.5 300.3 66.6 340.8 66.6 340.8ZM66.6 297.2 26 297.2 45.6 277.4 66.3 277.4 66.3 297.2C66.3 297.2 66.6 297.2 66.6 297.2ZM66.6 274.1 49 274.1 66.5 256.6 66.5 274.1ZM69.7 300.3 110.2 300.3 69.7 340.8C69.7 340.8 69.7 300.3 69.7 300.3ZM112.5 387 70.4 344.9 112.5 302.8 112.5 387ZM112.5 297.2 69.7 297.2 69.7 256.7 89.9 277.1C90.6 277.8 91.5 277.8 92.2 277.1L112.6 256.7 112.6 297.2ZM179.2 274.1 171.8 274.1C167.4 274.1 161.9 270.8 161.9 264.2L161.9 256.6 179.2 274.1ZM115.7 254.4 147.5 254.4C153 254.4 157.4 258.8 157.4 264.3 157.4 269.4 153.4 274.2 148.2 274.2L137.8 274.2C136.9 274.2 136.2 274.9 136.2 275.8 136.2 276.7 136.9 277.4 137.8 277.4 137.8 277.4 147.7 277.4 148 277.4 153.1 277.4 157.2 282 157.2 287.3 157.2 292.8 152.8 297.2 147.3 297.2L115.5 297.2 115.5 254.4 115.7 254.4 115.7 254.4 115.7 254.4ZM115.7 387 115.7 346.5 156.2 346.5 115.7 387ZM158.5 343.2 115.7 343.2 115.7 300.4 158.5 300.4 158.5 343.2ZM158.5 297.2 156.2 297.2C157.1 296.5 157.8 295.6 158.5 294.5L158.5 297.2ZM161.9 340.8 161.9 300.3 202.4 300.3 161.9 340.8ZM161.9 297.2 161.9 287.3C161.9 282.4 166.3 277.4 171.5 277.4L182.6 277.4 202.4 297.2 161.9 297.2 161.9 297.2Z" fill="#1C2E36"/></g></svg>