<svg width="174" height="58" xmlns="http://www.w3.org/2000/svg" xmlns:xlink="http://www.w3.org/1999/xlink" overflow="hidden"><defs><clipPath id="clip0"><rect x="110" y="974" width="174" height="58"/></clipPath></defs><g clip-path="url(#clip0)" transform="translate(-110 -974)"><path d="M236.229 995.729C233.478 1003.61 225.719 1008.76 224.061 1008.76 221.028 1008.76 223.815 1002.63 219.582 1002.63 216.726 1002.63 212 1005.75 212 1009.05 212 1010.54 213.093 1012.07 215.386 1012.07 218.242 1012.07 217.643 1008.29 219.371 1008.29 220.887 1008.29 220.394 1011.16 224.026 1011.16 226.036 1011.16 227.271 1009.13 228.329 1009.13 228.611 1009.13 228.999 1009.31 228.999 1010.21 228.999 1011.7 227.341 1016.39 227.341 1017.62 227.341 1018.42 228.188 1019 228.823 1019 229.457 1019 229.951 1018.71 230.092 1018.2 230.515 1016.64 230.903 1015.19 231.291 1013.84 237.463 993.297 243 999.65 243 995.184 243 993.587 241.73 993.006 240.179 993.006 238.451 992.897 236.793 994.241 236.229 995.729ZM215.104 1008.69C214.68 1008.69 214.61 1008.54 214.61 1008.22 214.61 1007.06 216.514 1005.46 217.466 1005.46 217.784 1005.46 218.031 1005.6 218.031 1005.89 218.031 1006.33 215.985 1008.69 215.104 1008.69Z" fill="#747798" fill-rule="evenodd" fill-opacity="1"/><path d="M198.831 1002.17C198.299 1002.6 199.296 1004.52 199.961 1004.17 200.592 1003.85 202.952 1002.39 204.215 1002.39 204.813 1002.39 205.112 1002.71 205.112 1003.06 205.112 1004.49 198 1008.37 198 1011.9 198 1012.75 198.731 1014 201.057 1014 204.68 1014 209 1012.18 209 1010.65 209 1010.4 208.701 1010.08 208.369 1010.08 207.804 1010.08 204.181 1011.68 202.254 1011.68 201.622 1011.68 201.124 1011.4 201.124 1010.94 201.124 1008.8 207.937 1005.45 207.937 1002.92 207.937 1000.68 206.009 1000 204.846 1000 202.088 1000.07 199.363 1001.78 198.831 1002.17Z" fill="#747798" fill-rule="evenodd" fill-opacity="1"/><path d="M273.963 1005.36C273.361 1007.66 269.037 1008.3 266.698 1008.3 264.359 1008.3 264.359 1007.66 263.863 1005.25 263.402 1002.99 262.445 1002.42 261.169 1002.42 260.248 1002.42 259.327 1003.3 258.263 1004.26 256.456 1005.93 254.72 1008.19 253.763 1008.19 252.948 1008.19 252.31 1007.24 252.31 1006.32 252.31 1005.47 252.983 1005.08 252.983 1004.12 252.983 1003.45 252.593 1002.14 251.636 1002.14 250.148 1002.14 247.774 1004.76 247.348 1005.15 246.108 1006.39 244.407 1008.83 242.67 1008.83 240.048 1008.83 242.422 1004.72 239.304 1004.72 237.673 1004.72 237 1006.21 237 1006.95 237 1008.19 237.815 1008.87 238.701 1009.82 239.693 1010.89 240.473 1011.84 241.82 1011.84 245.895 1011.84 246.817 1007.38 248.908 1007.38 249.616 1007.38 249.935 1008.02 250.006 1008.62 250.183 1010.14 251.814 1010.85 253.727 1010.85 257.307 1010.85 257.378 1007.7 259.61 1007.7 262.623 1007.7 262.055 1011.28 265.422 1011.28 266.769 1011.28 266.982 1011.06 269.002 1010.78 271.447 1010.46 273.538 1010.32 274.636 1009.65 277.153 1008.12 275.841 1003.66 278.464 1003.66 279.35 1003.66 280.059 1004.26 280.059 1005.75 280.059 1007.59 279.421 1011.84 270.313 1016.52 269.391 1017.02 268.718 1017.62 268.718 1018.15 268.718 1018.72 269.285 1019 269.817 1019 271.872 1019 283 1012.98 283 1006.14 283 1002.21 281.263 1001 278.747 1001 274.743 1000.93 274.53 1003.3 273.963 1005.36Z" fill="#747798" fill-rule="evenodd" fill-opacity="1"/><path d="M195.83 979C189.033 979 176.495 983.449 163.218 1002.4 154.167 1004.96 123 1014.56 123 1021.67 123 1023.14 125.219 1025.17 128.388 1025.17 129.903 1025.17 131.065 1024.61 131.065 1023.77 131.065 1022.12 127.12 1022.23 127.12 1021.04 127.12 1017.85 145.293 1010.98 161 1006.29 154.977 1017.74 158.323 1032 172.551 1032 179.313 1032 186.074 1027.9 190.195 1025.38 191.005 1024.89 190.371 1023.7 189.455 1024.15 185.194 1026.33 179.7 1029.09 173.924 1029.09 158.64 1029.09 160.366 1013.96 165.543 1004.92 170.086 1003.66 176.918 1002.01 184.067 1002.01 189.385 1002.01 190.794 1004.01 191.815 1004.36 192.836 1004.71 193.54 1003.87 192.871 1002.96 191.815 1001.52 189.843 999.072 182.799 999.072 179.77 999.037 173.713 999.808 167.797 1001.17 174.277 992.486 184.877 981.767 196.358 981.767 199.633 981.767 204 982.923 204 981.347 203.965 979.315 197.59 979 195.83 979Z" fill="#747798" fill-rule="evenodd" fill-opacity="1"/><path d="M142.385 993.69 145.782 993.69 146.553 983.399C146.623 982.194 146.588 980.507 146.588 980.507L146.658 980.507C146.658 980.507 147.253 982.332 147.674 983.399L150.686 990.524 153.663 990.524 156.711 983.399C157.166 982.332 157.727 980.542 157.727 980.542L157.797 980.542C157.797 980.542 157.727 982.159 157.832 983.399L158.637 993.69 162 993.69 160.494 975.275 156.851 975.275 153.173 984.362C152.753 985.464 152.262 987.047 152.262 987.047L152.157 987.047C152.157 987.047 151.632 985.429 151.212 984.362L147.534 975.275 143.891 975.275 142.385 993.69ZM126.902 991.487C126.902 991.487 129.179 994 133.348 994 137.236 994 139.512 991.522 139.512 988.596 139.512 982.71 130.685 983.502 130.685 980.266 130.685 978.958 131.911 978.063 133.523 978.063 135.87 978.063 137.656 979.681 137.656 979.681L139.127 976.962C139.127 976.962 137.236 975 133.523 975 129.95 975 127.253 977.272 127.253 980.335 127.253 985.98 136.08 985.429 136.08 988.699 136.08 990.214 134.784 990.937 133.348 990.937 130.72 990.937 128.689 989.009 128.689 989.009L126.902 991.487ZM114.398 983.915 114.398 978.167 116.99 978.167C119.652 978.167 120.422 979.268 120.422 981.024 120.422 982.848 119.302 983.915 117.48 983.915L114.398 983.915ZM111 993.69 114.398 993.69 114.398 986.841 117.655 986.841 121.368 993.725 125.186 993.725 121.333 986.841C120.948 986.187 120.703 985.946 120.703 985.946L120.703 985.877C122.664 985.085 123.855 983.054 123.855 980.851 123.855 978.408 122.664 976.652 120.808 975.826 120.002 975.448 119.056 975.31 117.025 975.31L111 975.31 111 993.69Z" fill="#171C54" fill-rule="evenodd" fill-opacity="1"/></g></svg>