<svg viewBox="0 0 82 42" xmlns="http://www.w3.org/2000/svg" xmlns:xlink="http://www.w3.org/1999/xlink" id="Layer_1" overflow="hidden"><defs></defs><path d="M32.51 34.68 34.44 29.55 35.55 29.55 37.48 34.68 36.35 34.68 36 33.8 33.93 33.8 33.62 34.68ZM35 30.85 34.29 32.85 35.7 32.85 34.99 30.85Z" fill="#006E62"/><path d="M40.25 29.44C41.472 29.3634 42.5512 30.2302 42.74 31.44L41.61 31.44C41.4642 30.8176 40.8875 30.3936 40.25 30.44 39.31 30.44 38.78 31.09 38.78 32.1 38.78 33.11 39.31 33.76 40.25 33.76 40.8875 33.8064 41.4642 33.3824 41.61 32.76L42.74 32.76C42.5512 33.9698 41.472 34.8366 40.25 34.76 38.7782 34.6698 37.6581 33.4035 37.7483 31.9317 37.8308 30.5857 38.904 29.5125 40.25 29.43Z" fill="#006E62"/><path d="M45.94 29.44C47.162 29.3634 48.2412 30.2302 48.43 31.44L47.3 31.44C47.1542 30.8176 46.5775 30.3936 45.94 30.44 45 30.44 44.47 31.09 44.47 32.1 44.47 33.11 45 33.76 45.94 33.76 46.5775 33.8064 47.1542 33.3824 47.3 32.76L48.43 32.76C48.2412 33.9698 47.162 34.8366 45.94 34.76 44.4682 34.6698 43.3481 33.4035 43.4383 31.9317 43.5208 30.5857 44.594 29.5125 45.94 29.43Z" fill="#006E62"/><path d="M52.08 34.68 51.08 32.74 50.08 32.74 50.08 34.68 49.05 34.68 49.05 29.55 51.38 29.55C52.219 29.4494 52.9807 30.048 53.0813 30.887 53.0917 30.9742 53.0946 31.0622 53.09 31.15 53.1341 31.7847 52.7677 32.3765 52.18 32.62L53.3 34.68ZM51.38 30.52 50.11 30.52 50.11 31.77 51.38 31.77C51.6972 31.8148 51.9906 31.594 52.0354 31.2768 52.0409 31.2381 52.0424 31.199 52.04 31.16 52.0701 30.8355 51.8315 30.5481 51.507 30.518 51.4647 30.5141 51.4221 30.5148 51.38 30.52Z" fill="#006E62"/><path d="M57.75 34.68 54.06 34.68 54.06 29.55 57.75 29.55 57.75 30.55 55.11 30.55 55.11 31.63 57.64 31.63 57.64 32.63 55.11 32.63 55.11 33.78 57.75 33.78Z" fill="#006E62"/><path d="M58.79 34.68 58.79 29.55 60.63 29.55C62.0466 29.4615 63.2667 30.5382 63.3552 31.9548 63.4437 33.3714 62.3671 34.5915 60.9505 34.68 60.8438 34.6867 60.7367 34.6867 60.63 34.68ZM60.6 30.52 59.84 30.52 59.84 33.71 60.6 33.71C61.3947 33.8088 62.119 33.2448 62.2179 32.4501 62.2319 32.3372 62.2326 32.223 62.22 32.11 62.3034 31.3135 61.7253 30.6003 60.9288 30.5169 60.8195 30.5055 60.7091 30.5065 60.6 30.52Z" fill="#006E62"/><path d="M65.08 34.68 64 34.68 64 29.55 65.05 29.55Z" fill="#006E62"/><path d="M69.59 30.54 68.18 30.54 68.18 34.68 67.13 34.68 67.13 30.54 65.72 30.54 65.72 29.54 69.59 29.54Z" fill="#006E62"/><path d="M73.68 34.68 70 34.68 70 29.55 73.69 29.55 73.69 30.55 71 30.55 71 31.63 73.53 31.63 73.53 32.63 71 32.63 71 33.78 73.64 33.78Z" fill="#006E62"/><path d="M74.53 34.68 74.53 29.55 76.37 29.55C77.7866 29.4615 79.0067 30.5382 79.0952 31.9548 79.1837 33.3714 78.1071 34.5915 76.6905 34.68 76.5838 34.6867 76.4767 34.6867 76.37 34.68ZM76.34 30.52 75.58 30.52 75.58 33.71 76.34 33.71C77.1316 33.8313 77.8716 33.2879 77.9929 32.4963 78.0125 32.3685 78.0149 32.2385 78 32.11 78.0865 31.3139 77.5112 30.5984 76.715 30.5119 76.5902 30.4984 76.4641 30.5011 76.34 30.52Z" fill="#006E62"/><path d="M18.3 16.7 18.3 25.4 27 34.1 27 16.7 18.3 16.7Z" fill="#3FBFAD"/><path d="M18.3 8 0.9 8 9.6 16.7 18.3 16.7 18.3 8Z" fill="#A5D400"/><rect x="18.3" y="8" width="8.7" height="8.7" fill="#006E62"/><path d="M8.7 26.3 8.7 17.6 0 8.9 0 26.3 8.7 26.3Z" fill="#3FBFAD"/><path d="M8.7 35 26.1 35 17.4 26.3 8.7 26.3 8.7 35Z" fill="#A5D400"/><rect x="0" y="26.3" width="8.7" height="8.7" fill="#006E62"/><path d="M32 27.41 36 16.66 38.33 16.66 42.33 27.41 40 27.41 39.35 25.56 35 25.56 34.35 27.41ZM37.16 19.41 35.68 23.6 38.68 23.6 37.2 19.41Z" fill="#006E62"/><path d="M41.93 27.41 45.93 16.66 48.26 16.66 52.26 27.41 50 27.41 49.35 25.56 44.9 25.56 44.25 27.41ZM47.09 19.41 45.61 23.6 48.61 23.6 47.13 19.41Z" fill="#006E62"/><path d="M68.62 24.41C68.62 22.29 62.87 23.96 62.87 19.75 62.87 17.93 64.31 16.44 66.79 16.44 68.8207 16.2682 70.6061 17.7752 70.7779 19.8058 70.7842 19.8804 70.7882 19.9552 70.79 20.03L68.62 20.03C68.5923 19.1026 67.8179 18.3732 66.8905 18.401 66.8469 18.4023 66.8034 18.4053 66.76 18.41 65.76 18.41 65.05 18.92 65.05 19.62 65.05 21.77 70.86 20.07 70.86 24.34 70.86 26.26 69.16 27.62 66.61 27.62 63.61 27.62 62.52 25.77 62.46 24L64.64 24C64.7 24.88 65.34 25.65 66.73 25.65 67.91 25.65 68.62 25.2 68.62 24.41Z" fill="#006E62"/><path d="M71.59 27.41 71.59 16.66 76.13 16.66C78.6 16.66 79.7 17.98 79.7 19.66 79.7251 20.6732 79.1312 21.5998 78.2 22 79.2062 22.3539 79.8716 23.3136 79.85 24.38 79.85 26.23 78.65 27.38 76.32 27.38ZM73.74 18.67 73.74 21 76.12 21C76.97 21 77.48 20.61 77.48 19.83 77.48 19.05 77.09 18.66 76.12 18.66ZM73.74 22.97 73.74 25.42 76.27 25.42C77.21 25.42 77.63 24.95 77.63 24.19 77.63 23.43 77.2 23 76.27 23Z" fill="#006E62"/><path d="M59.73 24C59.2303 24.9791 58.1972 25.5684 57.1 25.5 55.1 25.5 54.03 24.14 54.03 22.02 54.03 19.9 55.13 18.54 57.1 18.54 58.4391 18.4371 59.6516 19.3305 59.95 20.64L62.3 20.64C61.8989 18.1089 59.6489 16.2908 57.09 16.43 54.1803 16.359 51.764 18.6601 51.6929 21.5698 51.6894 21.7132 51.6918 21.8568 51.7 22 51.5278 24.9054 53.7435 27.4004 56.6489 27.5726 56.7991 27.5815 56.9496 27.584 57.1 27.58 59.4158 27.7069 61.5148 26.2248 62.17 24Z" fill="#006E62"/></svg>